# xmcd
#
# Track frame offsets:
#	150
#	28812
#	52262
#	75947
#	93305
#	113562
#	148287
#	171752
#	200170
#	224180
#
# Disc length: 3225 seconds
#
# Revision: 2406480581
# Processed by: cddbd v1.5.2PL0 Copyright (c) Steve Scherf et al.
# Submitted via: EZCDAudioConverter 8.0.2.1
#
DISCID=970c970a
DTITLE=Hương Lan - Em Bỏ Giòng Sông
DYEAR=2000
DGENRE=
TTITLE0=Hương Lan - Em Bỏ Dòng Sông
TTITLE1=Hương Lan - Vầng trán suy tư
TTITLE2=Hương Lan - Tình mẹ
TTITLE3=Hương Lan, Quang Bình - Lý Cái Mơn
TTITLE4=Hương Lan - Ngày ấy
TTITLE5=Hương Lan - Đàn chim trắng
TTITLE6=Hương Lan - Tình ca trên dòng sông Quan Họ
TTITLE7=Hương Lan, Quang Bình - Ru con thuyền mộng
TTITLE8=Hương Lan - Ngỡ ngàng
TTITLE9=Hương Lan - Nắng lên xóm nghèo
EXTD=
EXTT0=
EXTT1=
EXTT2=
EXTT3=
EXTT4=
EXTT5=
EXTT6=
EXTT7=
EXTT8=
EXTT9=
PLAYORDER=
